<svg version="1.1" xmlns="http://www.w3.org/2000/svg" xmlns:xlink="http://www.w3.org/1999/xlink" width="12" height="14" viewBox="0,0,219.42188,256"><g fill="#ffffff" fill-rule="evenodd" stroke="none" stroke-width="1" stroke-linecap="butt" stroke-linejoin="miter" stroke-miterlimit="10" stroke-dasharray="" stroke-dashoffset="0" font-family="none" font-weight="none" font-size="none" text-anchor="none" style="mix-blend-mode: normal"><g transform="translate(-0.00335,0) scale(18.28571,18.28571)"><path d="M8.5,4c0,1.38071 -1.11929,2.5 -2.5,2.5c-1.38071,0 -2.5,-1.11929 -2.5,-2.5c0,-1.38071 1.11929,-2.5 2.5,-2.5c1.38071,0 2.5,1.11929 2.5,2.5zM10,4c0,2.20914 -1.79086,4 -4,4c-2.20914,0 -4,-1.79086 -4,-4c0,-2.20914 1.79086,-4 4,-4c2.20914,0 4,1.79086 4,4zM4,9.25c-2.07107,0 -3.75,1.6789 -3.75,3.75v1h1.5v-1c0,-1.2426 1.00736,-2.25 2.25,-2.25h4c1.24264,0 2.25,1.0074 2.25,2.25v1h1.5v-1c0,-2.0711 -1.6789,-3.75 -3.75,-3.75z"></path></g></g></svg>